<svg width="581.85193" height="521.10805" xmlns="http://www.w3.org/2000/svg">
 <g>
  <title>background</title>
  <rect x="-1" y="-1" width="583.85193" height="523.10805" id="canvas_background" fill="none"/>
 </g>
 <defs>
  <filter height="200%" width="200%" y="-50%" x="-50%" id="svg_21_blur">
   <feGaussianBlur stdDeviation="0.2" in="SourceGraphic"/>
  </filter>
 </defs>
 <g>
  <title>Layer 1</title>
  <path fill-opacity="0.5" d="m451.37696,448.52683l-14.75978,0a6.50753,6.50753 0 0 1 -6.5,-6.5l0,-123.01465a6.50753,6.50753 0 0 1 6.5,-6.5l14.75978,0a6.50753,6.50753 0 0 1 6.5,6.5l0,123.01465a6.50753,6.50753 0 0 1 -6.5,6.5z" fill="#90dab9" id="svg_1"/>
  <path fill-opacity="0.5" d="m472.6278,283.30485l-11.54657,-9.19361a5.99993,5.99993 0 0 0 -8.43115,0.95649l-76.62445,96.2351a6,6 0 0 0 0.95648,8.43122l0.31336,0.24951l37.27429,59.14361a6,6 0 0 0 8.27508,1.877l12.48664,-7.86951a6.00011,6.00011 0 0 0 1.87695,-8.27515l-30.75934,-48.80621l67.13519,-84.3172a6,6 0 0 0 -0.95648,-8.43125z" fill="#90dab9" id="svg_2"/>
  <path d="m461.19628,356.61179l-71,0a8.51013,8.51013 0 0 1 -8.5,-8.5l0,-17a8.51014,8.51014 0 0 1 8.5,-8.5l71,0a8.51013,8.51013 0 0 1 8.5,8.5l0,17a8.51012,8.51012 0 0 1 -8.5,8.5z" fill="#ccc" id="svg_3"/>
  <circle fill-opacity="0.5" cx="436.18475" cy="115.18088" r="53.51916" fill="#90dab9" id="svg_5"/>
  <path d="m394.46874,133.05027c-3.30664,-0.09277 -7.42285,-0.208 -10.58886,-2.52344a8.13044,8.13044 0 0 1 -3.2002,-6.07178a5.47024,5.47024 0 0 1 1.86035,-4.49316c1.65625,-1.39941 4.07325,-1.72705 6.67774,-0.96142l-2.69922,-19.72608l1.98242,-0.27148l3.17188,23.19091l-1.6543,-0.75976c-1.91895,-0.88037 -4.55176,-1.32813 -6.1875,0.05517a3.51367,3.51367 0 0 0 -1.15235,2.895a6.14727,6.14727 0 0 0 2.38086,4.52784c2.46387,1.80175 5.74512,2.03418 9.46582,2.13867l-0.05664,1.99953z" fill="#2f2e41" id="svg_7"/>
  <rect x="399.94824" y="100.97605" width="10.77148" height="2" fill="#2f2e41" id="svg_8"/>
  <rect x="1135.62138" y="1557.62842" width="26.75958" height="135.01423" rx="6" transform="rotate(-129.8042449951172 1149.0010986328125,1625.135498046875) " fill="#90dab9" id="svg_9"/>
  <path d="m439.03696,60.97395c-2.25365,-10.30069 0.52843,-21.18718 6.55729,-29.72059c6.14257,-8.69437 15.76087,-14.50791 25.961,-17.16191c19.77257,-5.14469 40.76618,2.03851 55.41016,15.74677c15.80238,14.79264 22.85191,36.29955 21.8373,57.64974c-1.02873,21.64729 -10.34457,41.97132 -24.32408,58.31547a130.37836,130.37836 0 0 1 -23.31613,21.26621c-4.24407,3.03108 -9.21,6.979 -14.67089,7.06755c-3.95753,0.06415 -9.015,-2.49986 -7.97323,-7.17363c0.35863,-1.609 1.48847,-3.35681 3.26757,-3.567c1.8941,-0.22374 1.91667,-3.22641 0,-3c-4.65347,0.54969 -7.36434,5.58981 -6.1038,9.96813c1.39355,4.8403 7.00738,7.14484 11.66808,6.7253c5.90847,-0.53187 10.985,-4.31006 15.65153,-7.66285a139.93067,139.93067 0 0 0 13.333,-10.853c16.7372,-15.46812 29.6702,-35.61359 33.9408,-58.21278c4.302,-22.76533 0.062,-47.48152 -14.7554,-65.74237c-13.44513,-16.56965 -35.06344,-27.26841 -56.61849,-24.89889c-11.32675,1.24514 -22.37938,5.86392 -30.62266,13.84153a42.60393,42.60393 0 0 0 -13.02985,30.0129a37.83353,37.83353 0 0 0 0.895,8.19693c0.41245,1.88515 3.30523,1.08739 2.89284,-0.79751l-0.00004,0z" fill="#2f2e41" id="svg_11"/>
  <path d="m446.06043,62.56072a24.2877,24.2877 0 0 1 27.54714,-26.69981c1.91051,0.2407 1.893,-2.76151 0,-3a27.232,27.232 0 0 0 -30.54714,29.69981c0.18289,1.90481 3.18472,1.92383 3,0z" fill="#2f2e41" id="svg_12"/>
  <path d="m434.1416,50.27537a4.50019,4.50019 0 0 0 -1.415,8.77343l0.001,0l14.24317,4.70313a4.5,4.5 0 0 0 2.82129,-8.54639l-14.24414,-4.70312a4.48208,4.48208 0 0 0 -1.40632,-0.22705z" fill="#2f2e41" id="svg_13"/>
  <path d="m155.99945,240.55613l-0.22349,0c-85.89439,0 -155.77593,-69.88153 -155.77593,-155.77837c0,-85.89623 69.88154,-155.77776 155.77776,-155.77776s155.77838,69.88153 155.77838,155.77776a155.89417,155.89417 0 0 1 -48.242,112.69589l31.34048,35.13193l-1.60684,0.68158c-25.977,11.01522 -52.29786,-4.00031 -63.056,-11.52091a155.49255,155.49255 0 0 1 -73.99236,18.78988zm-0.2217,-309.05456c-84.51657,0 -153.27619,68.75961 -153.27619,153.27619s68.75962,153.2768 153.27619,153.2768a152.94684,152.94684 0 0 0 73.69621,-18.85462l0.68769,-0.37865l0.63944,0.45561c9.76626,6.94894 34.82411,21.80446 59.6395,12.3625l-30.61495,-34.31838l0.89106,-0.83426a153.37,153.37 0 0 0 48.33785,-111.70774c0,-84.51784 -68.75959,-153.27745 -153.2768,-153.27745z" fill="#000000" id="svg_14"/>
  <path fill-opacity="0.5" d="m204.02196,59.28964c-31.96825,-0.33285 -63.93244,-0.90439 -95.89925,-1.33867q-15.98548,-0.21715 -31.97163,-0.38072c-9.1828,-0.09561 -9.20627,-14.37494 0,-14.27909c31.96824,0.33285 63.93244,0.90439 95.89925,1.33866q15.98549,0.21717 31.97163,0.38072c9.1828,0.09561 9.20627,14.375 0,14.2791z" fill="#90dab9" id="svg_15"/>
  <path fill-opacity="0.5" d="m239.04396,92.60752l-129.20273,-1.33866l-36.74573,-0.38072c-9.18283,-0.09514 -9.20626,-14.37448 0,-14.27909l129.20273,1.33866l36.74573,0.38072c9.18283,0.09514 9.20627,14.37448 0,14.27909z" fill="#90dab9" id="svg_16"/>
  <path fill-opacity="0.5" d="m239.04396,125.92541l-129.20273,-1.33867l-36.74573,-0.38072c-9.18283,-0.09514 -9.20626,-14.37448 0,-14.27909l129.20273,1.33866l36.74573,0.38072c9.18283,0.09515 9.20627,14.37448 0,14.2791z" fill="#90dab9" id="svg_17"/>
  <circle cx="311" cy="250.55613" r="9" fill="#e6e6e6" id="svg_18"/>
  <rect x="1135.62138" y="1557.62842" width="26.75958" height="135.01423" rx="6" transform="rotate(-129.8042449951172 1149.0010986328125,1625.135498046875) " fill="#90dab9" id="svg_4"/>
  <rect x="1135.62138" y="1557.62842" width="26.75958" height="135.01423" rx="6" transform="rotate(-129.8042449951172 1149.0010986328125,1625.135498046875) " fill="#90dab9" id="svg_19"/>
  <rect x="1135.62138" y="1557.62842" width="26.75958" height="135.01423" rx="6" transform="rotate(-129.8042449951172 1149.0010986328125,1625.135498046875) " fill="#90dab9" id="svg_20"/>
  <rect fill-opacity="0.5" filter="url(#svg_21_blur)" stroke-width="0" x="374.29316" y="179.04689" width="26.75958" height="135.01423" rx="13" transform="rotate(-129.8042449951172 387.6729431152344,246.55401611328128) " fill="#90dab9" id="svg_21"/>
  <path d="m484.32421,334.9741l-110.0625,0a6.50753,6.50753 0 0 1 -6.5,-6.5l22.00977,-112.60645a36.47174,36.47174 0 0 1 36.45508,-36.36914l7.14257,0a36.49615,36.49615 0 0 1 36.45508,36.45508l20.99121,112.42871a6.51478,6.51478 0 0 1 -6.49121,6.5918z" fill="#2f2e41" id="svg_22"/>
  <path d="m432.99083,226.39636l-38.97952,37.04166a6.52536,6.52536 0 0 1 -9.00684,-0.016l-17.63439,-16.87715a6.52536,6.52536 0 0 1 0.76208,-10.05463l46.228,-32.45865a6.5372,6.5372 0 0 1 9.189,0.83192l10.27791,12.33412a6.537,6.537 0 0 1 -0.83624,9.19873z" fill="#2f2e41" id="svg_23"/>
 </g>
</svg>