<svg width="800" height="600" xmlns="http://www.w3.org/2000/svg">
 <!-- Created with Method Draw - http://github.com/duopixel/Method-Draw/ -->
 <g>
  <title>background</title>
  <rect fill="none" id="canvas_background" height="602" width="802" y="-1" x="-1"/>
 </g>
 <g>
  <title>Layer 1</title>
  <path id="svg_113" fill="url(#af83dc26-9572-4816-b7a1-1af4f72ff554)" d="m581.90955,485.22a9.56,9.56 0 0 0 -2.17,-2.41c-4.37,-4.13 -6.4,-10.19 -7.48,-16.13s-1.39,-12 -3.12,-17.81a58.74,58.74 0 0 0 -3.52,-8.67c-1,-2.14 -2.26,-6.33 -4.09,-7.83a2.7,2.7 0 0 0 -1.26,-0.61a14.85,14.85 0 0 0 -3.62,-4.82c-2.86,-2.59 -6.35,-4.65 -8.26,-8a18,18 0 0 0 -1.93,-3.29c-1.29,-1.42 -3.33,-2 -4.52,-3.5c-1.55,-1.94 -1.2,-4.72 -1,-7.19s0,-5.43 -2.14,-6.73c-1.28,-0.79 -2.93,-0.71 -4.26,-1.41c-2,-1 -2.79,-3.52 -2.75,-5.77s0.74,-4.44 0.92,-6.69c0.56,-7.16 -4.16,-14.28 -2.34,-21.22c0.69,-2.63 2.27,-4.91 3.44,-7.36a15.37,15.37 0 0 0 1,-2.54a35.73,35.73 0 0 0 9.74,2.35c-5.51,-12.36 -4.11,-26.72 -6.68,-40l0.33,-0.45a20.84,20.84 0 0 0 4.22,-11.86c0,-4.94 -2.31,-9.56 -3.35,-14.4c-0.89,-4.11 -0.85,-8.41 -2,-12.45a37.65,37.65 0 0 0 -3.16,-7.22q-1.87,-3.47 -3.93,-6.83q-1.92,-6.36 -3.85,-12.72c-1.8,-5.95 -3.65,-12 -7.15,-17.14c-1.28,-1.88 -1.67,-5.7 -3.64,-6.84a8.81,8.81 0 0 0 -5.2,-0.91c-2.78,-1.56 -5.22,-3.81 -5.57,-6.89a6.68,6.68 0 0 1 0.2,-2l0.34,0c4.4,-0.4 6.63,-4.28 8.92,-7.68c3.7,-5.5 2.29,-12.94 0,-19.2a13,13 0 0 0 -3,-5.29c-3.21,-3 -8.29,-2.34 -12.43,-3.79c-1.39,-0.48 -2.69,-1.21 -4.11,-1.55c-2.75,-0.64 -5.63,0.26 -8.15,1.53s-4.87,2.91 -7.51,3.91s-5.9,1.79 -6.55,4.5a5,5 0 0 0 0.22,2.73a10.18,10.18 0 0 0 3.09,4.46a17.81,17.81 0 0 0 10.87,24.82c0.76,1.22 1.47,2.46 2.12,3.73c1.16,2.24 2.14,4.88 1.74,7.28a22.45,22.45 0 0 0 -2,2.45c-2.87,4 -4.5,8.69 -6,13.37a141.65,141.65 0 0 0 -4.83,18.27c-2.44,5.19 -5.42,10.15 -7.19,15.6a35.21,35.21 0 0 1 -9.38,-1.26l-8.44,-1.91c-2.94,-0.67 -6,-1.39 -8.3,-3.33c-1.22,-1 -2.17,-2.33 -3.41,-3.32s-3.73,-2.15 -5.09,-1.33a4,4 0 0 0 -0.69,0.53c-1.24,-2.51 -2.42,-5 -3.86,-7.43c-2.07,-3.4 -5.15,-6.51 -9.05,-7.16a9.21,9.21 0 0 0 -6.79,1.58c-2.28,1.62 -3.71,5 -2,7.28a13.29,13.29 0 0 0 1.39,1.42a29.2,29.2 0 0 1 3.09,4.29a21.91,21.91 0 0 0 13.49,8.76l-0.35,1c-0.71,2.08 -2.22,4.59 -1.84,6.75l37.54,12.85a23.13,23.13 0 0 0 7.56,1.67a12.21,12.21 0 0 0 3,-0.4l0,1.92l0,0.08c0.1,13.19 -2,26.29 -2.39,39.47c-0.07,2.41 0,5 1.52,6.88c1.7,2.06 4.72,2.47 7.35,2q0.95,-0.16 1.86,-0.42a69.33,69.33 0 0 1 1.92,10.11l2.48,17.86a27.14,27.14 0 0 1 0.39,5.54c-0.29,4.19 -2.5,7.94 -4.1,11.81s-2.55,8.5 -0.45,12.12c0.66,1.12 1.57,2.07 2.16,3.23a13.14,13.14 0 0 1 1,5.68q0.23,8.08 0.44,16.18a1.83,1.83 0 0 0 -1.26,0.25c-2.08,1.62 -1.85,9.33 -2,11.72c-0.16,4 0,8.08 -0.22,12.12a72.22,72.22 0 0 1 -2.61,16.09a10.29,10.29 0 0 1 -2.29,4.61a9.74,9.74 0 0 1 -4.07,2.11a46.49,46.49 0 0 1 -15.41,2.1c-2.11,-0.07 -4.31,-0.27 -6.27,0.53s-3.54,3 -2.83,5c0.61,1.68 2.46,2.48 4.13,3.11a65.53,65.53 0 0 1 11,5.06a29.74,29.74 0 0 0 4.25,2.41a21.91,21.91 0 0 0 4.38,1.08l17.73,3.06c3.63,0.62 8,1 10.31,-2c1.25,-1.62 1.43,-3.82 1.37,-5.88c-0.1,-4 -0.9,-8.07 -0.38,-12.07a37.14,37.14 0 0 1 1.86,-6.93q2.65,-7.87 5.32,-15.73c1.78,-5.26 3.58,-10.57 4.27,-16.09c0.25,-2 0.23,-4.28 -1.3,-5.53a3.54,3.54 0 0 0 -1.32,-0.68c-0.06,-4.82 -0.69,-9.65 -0.42,-14.47c0.07,-1.2 0.19,-2.4 0.29,-3.61a17.61,17.61 0 0 1 2.47,2.92c1.71,2.68 2.34,6.22 4.95,8c2.22,1.52 5.51,1.44 7.07,3.64a10.26,10.26 0 0 1 1.12,2.71a19.32,19.32 0 0 0 4,6.35a32,32 0 0 0 2.47,6.34q2.21,4.67 4.4,9.31a108.59,108.59 0 0 0 5,9.77a27.55,27.55 0 0 1 3.35,6.46c1.41,4.94 -0.89,10.36 -4.53,14s-8.44,5.73 -13.17,7.68a3.71,3.71 0 0 0 -1.34,0.8a2.59,2.59 0 0 0 -0.61,1.74c0,2.31 1.9,4.29 4.08,5a15.26,15.26 0 0 0 6.83,0.25c12.78,-1.55 25.52,-4.67 36.82,-10.88a13,13 0 0 0 4.39,-3.39a5.13,5.13 0 0 0 0.73,-5.21z"/>
  <path id="svg_114" fill="#2f2e41" d="m527.89955,260.97q3.2,4.91 6,10.06a37,37 0 0 1 3.17,7.17c1.16,4 1.13,8.27 2,12.35c1,4.8 3.34,9.38 3.34,14.3a20.56,20.56 0 0 1 -4.22,11.76a55.82,55.82 0 0 1 -8.82,9.1a187.62,187.62 0 0 1 -12.48,-61.21c-0.1,-2.9 -0.12,-5.89 0.94,-8.6c0.65,-1.7 3.77,-6.36 5.78,-4.53c0.73,0.67 0.92,3.69 1.37,4.7a36.13,36.13 0 0 0 2.92,4.9z"/>
  <path id="svg_115" opacity="0.1" d="m527.89955,260.97q3.2,4.91 6,10.06a37,37 0 0 1 3.17,7.17c1.16,4 1.13,8.27 2,12.35c1,4.8 3.34,9.38 3.34,14.3a20.56,20.56 0 0 1 -4.22,11.76a55.82,55.82 0 0 1 -8.82,9.1a187.62,187.62 0 0 1 -12.48,-61.21c-0.1,-2.9 -0.12,-5.89 0.94,-8.6c0.65,-1.7 3.77,-6.36 5.78,-4.53c0.73,0.67 0.92,3.69 1.37,4.7a36.13,36.13 0 0 0 2.92,4.9z"/>
  <path id="svg_116" fill="#d0d2d5" d="m264.25955,124.54c-7.91,7.9 -8.86,11.38 -13.61,12.95s-21.84,10.42 -16.47,20.23l14.44,9.54l0.42,0.28l2.21,6.64l-21.84,38.88s-36,-16.46 -39.53,7.89s-1.29,31 -2.24,44s0.31,16.76 -2.86,16.76s-4.42,-8.54 -4.42,-8.54s-0.2,-0.39 -0.55,-1.12c-4.71,-9.79 -36.68,-81.66 14.53,-131.06c0,0 23.72,-1.56 29.43,-28.76c3.94,-18.8 17.72,-17.18 26.88,-13.35a30.38,30.38 0 0 1 8.22,4.83a40.48,40.48 0 0 1 5.89,7c2.61,4.12 4.03,9.29 -0.5,13.83z"/>
  <path id="svg_117" opacity="0.1" d="m249.03955,167.54l2.21,6.64l-21.84,38.88s-36,-16.46 -39.53,7.89s-1.29,31 -2.24,44s0.31,16.76 -2.86,16.76s-4.42,-8.54 -4.42,-8.54s-0.2,-0.39 -0.55,-1.12c-1.59,-12.16 -9.65,-83.29 19.57,-79.51c0,0 23.71,11.08 27.5,6.66c3,-3.5 16.32,-23.63 21.74,-31.89l0.42,0.23z"/>
  <path id="svg_118" opacity="0.1" d="m264.75955,110.65l-14.44,16.41s-16.77,22.44 -20.25,21.49a16.23,16.23 0 0 0 -3.17,-0.37a6.16,6.16 0 0 1 -4,-10.38c5.72,-6 16.26,-17.39 16.95,-19.92s7.4,-13.62 10.76,-19.05a30.38,30.38 0 0 1 8.22,4.83a40.48,40.48 0 0 1 5.93,6.99z"/>
  <path id="svg_119" fill="#454b69" d="m675.13774,347.19455c-2.45,4.9 -15,23.28 -20.49,31.31l-2.57,3.78s-1,6.64 -17.39,-1.59s-401.48,-170.72 -401.48,-170.72l-2.61,-7.84l19,-28.45l422.07,163.07s6.64,4.11 3.47,10.44z"/>
  <path id="svg_120" opacity="0.1" d="m652.82955,378.05l-2.57,3.78s-1,6.64 -17.39,-1.59s-401.48,-170.72 -401.48,-170.72l-2.61,-7.84l424.05,176.37z"/>
  <path id="svg_121" fill="#fbbebe" d="m420.54955,271.91c-3.91,-0.64 -8.25,-0.33 -11.29,2.21a9.29,9.29 0 0 0 -3.24,6.16c-0.26,2.77 1.35,6.06 4.13,6.27a13.17,13.17 0 0 0 2,-0.13a29.89,29.89 0 0 1 5.24,0.44a21.39,21.39 0 0 0 18.23,-7.36c2.39,-3 -0.76,-4.3 -3.58,-4.9c-3.86,-0.82 -7.63,-2.07 -11.49,-2.69z"/>
  <path id="svg_122" fill="#3f3d56" d="m487.42955,362.22l2.48,17.62a26.84,26.84 0 0 1 0.38,5.51c-0.29,4.15 -2.5,7.87 -4.09,11.71s-2.56,8.44 -0.45,12c0.65,1.11 1.56,2.06 2.15,3.21a12.92,12.92 0 0 1 1,5.63l0.68,25a157.33,157.33 0 0 0 23.18,-0.13a1.29,1.29 0 0 0 0.84,-0.26a1.36,1.36 0 0 0 0.29,-0.91c0.34,-5.85 -0.68,-11.71 -0.35,-17.56c0.12,-2.14 0.42,-4.27 0.46,-6.42c0.12,-8.71 -4.18,-17.24 -2.88,-25.85a57,57 0 0 1 1.6,-6.43c4.11,-15 3.24,-30.76 2.33,-46.25a1.09,1.09 0 0 0 -0.2,-0.7a1.06,1.06 0 0 0 -0.54,-0.29a28.45,28.45 0 0 0 -25.78,4.9c-1.09,0.88 -3.84,1.73 -4.56,2.78c-1,1.46 0.31,2.92 0.89,4.47a56.89,56.89 0 0 1 2.57,11.97z"/>
  <path id="svg_123" opacity="0.1" d="m487.42955,362.22l2.48,17.62a26.84,26.84 0 0 1 0.38,5.51c-0.29,4.15 -2.5,7.87 -4.09,11.71s-2.56,8.44 -0.45,12c0.65,1.11 1.56,2.06 2.15,3.21a12.92,12.92 0 0 1 1,5.63l0.68,25a157.33,157.33 0 0 0 23.18,-0.13a1.29,1.29 0 0 0 0.84,-0.26a1.36,1.36 0 0 0 0.29,-0.91c0.34,-5.85 -0.68,-11.71 -0.35,-17.56c0.12,-2.14 0.42,-4.27 0.46,-6.42c0.12,-8.71 -4.18,-17.24 -2.88,-25.85a57,57 0 0 1 1.6,-6.43c4.11,-15 3.24,-30.76 2.33,-46.25a1.09,1.09 0 0 0 -0.2,-0.7a1.06,1.06 0 0 0 -0.54,-0.29a28.45,28.45 0 0 0 -25.78,4.9c-1.09,0.88 -3.84,1.73 -4.56,2.78c-1,1.46 0.31,2.92 0.89,4.47a56.89,56.89 0 0 1 2.57,11.97z"/>
  <path id="svg_124" fill="#3f3d56" d="m533.79955,356.91c-1.17,2.43 -2.74,4.69 -3.44,7.3c-1.82,6.89 2.89,14 2.33,21.06c-0.18,2.23 -0.87,4.4 -0.92,6.63s0.77,4.71 2.75,5.74c1.33,0.68 3,0.61 4.25,1.39c2.11,1.29 2.35,4.22 2.14,6.68s-0.56,5.21 1,7.13c1.19,1.49 3.23,2.07 4.51,3.48a17.17,17.17 0 0 1 1.93,3.26c1.91,3.34 5.4,5.38 8.26,8s5.28,6.46 4,10.09c-0.94,2.66 -3.58,4.3 -6.12,5.55a64.93,64.93 0 0 1 -14.57,5.15a3.52,3.52 0 0 1 -1.67,0.09a3.57,3.57 0 0 1 -1.46,-1c-2.95,-2.89 -6,-5.92 -7.36,-9.81a10.07,10.07 0 0 0 -1.12,-2.68c-1.56,-2.19 -4.85,-2.11 -7.07,-3.62c-2.6,-1.77 -3.23,-5.28 -4.93,-7.93s-4.19,-4.23 -6,-6.56c-3.06,-3.88 -3.81,-9.06 -6,-13.49c-0.93,-1.88 -2.12,-3.64 -2.86,-5.6a30.58,30.58 0 0 1 -1.37,-7.24c-1.41,-11.68 -5,-23.44 -2.74,-35c0.5,-2.54 1.27,-5 1.59,-7.62c0.55,-4.53 -0.32,-9.17 0.35,-13.69a3.77,3.77 0 0 1 1.51,-2.91a4,4 0 0 1 1.72,-0.35a117.28,117.28 0 0 1 17.78,0.4c3,0.29 6.36,0.9 8.16,3.35c1.53,2.1 1.45,4.91 1.94,7.46c0.61,3.14 2.2,4.85 3.87,7.31s0.77,4.89 -0.46,7.43z"/>
  <path id="svg_125" fill="#2f2e41" d="m510.72955,438.17c1.58,0 3.33,-0.1 4.55,0.9c1.52,1.25 1.54,3.54 1.3,5.49c-0.7,5.48 -2.49,10.75 -4.28,16l-5.32,15.61a36.65,36.65 0 0 0 -1.86,6.88c-0.52,4 0.28,8 0.38,12c0,2 -0.13,4.22 -1.38,5.83c-2.26,2.91 -6.67,2.57 -10.3,2l-17.71,-3a21.07,21.07 0 0 1 -4.38,-1.07a30.61,30.61 0 0 1 -4.25,-2.39a65.42,65.42 0 0 0 -11,-5c-1.66,-0.62 -3.52,-1.41 -4.12,-3.08c-0.71,-2 0.87,-4.2 2.83,-5s4.15,-0.6 6.27,-0.54a47,47 0 0 0 15.4,-2.08a9.74,9.74 0 0 0 4.06,-2.1a10,10 0 0 0 2.34,-4.71a70.17,70.17 0 0 0 2.68,-16c0.21,-4 0.07,-8 0.23,-12c0.1,-2.37 -0.13,-10 1.95,-11.63c1.59,-1.22 8.13,2.15 10.28,2.64a50,50 0 0 0 12.33,1.25z"/>
  <path id="svg_126" fill="#2f2e41" d="m569.06955,449.29c1.73,5.73 2,11.79 3.12,17.68s3.1,11.9 7.47,16a9.87,9.87 0 0 1 2.17,2.4a5.06,5.06 0 0 1 -0.75,5.23a13.13,13.13 0 0 1 -4.39,3.37c-11.29,6.16 -24,9.27 -36.81,10.81a15.51,15.51 0 0 1 -6.82,-0.25c-2.18,-0.74 -4.11,-2.7 -4.07,-5a2.55,2.55 0 0 1 0.6,-1.73a3.73,3.73 0 0 1 1.35,-0.79c4.72,-1.94 9.51,-4.05 13.16,-7.63s5.94,-9 4.53,-13.86a27.42,27.42 0 0 0 -3.37,-6.41a108.35,108.35 0 0 1 -5,-9.69l-4.4,-9.23c-1.29,-2.7 -2.59,-5.48 -2.81,-8.46a40.6,40.6 0 0 0 16.22,-2.6a25.51,25.51 0 0 0 6.67,-4c1.7,-1.42 3.25,-4.07 5.54,-2.22c1.84,1.48 3,5.65 4.08,7.76a57,57 0 0 1 3.51,8.62z"/>
  <path id="svg_127" fill="#fbbebe" d="m504.58955,220.1c0.44,3.84 4.16,6.37 7.71,7.89l-22.47,7.17c1.45,-2.78 0.28,-6.18 -1.16,-9a50.93,50.93 0 0 0 -4,-6.41c-0.22,-0.31 -0.47,-0.7 -0.31,-1.06a1.12,1.12 0 0 1 0.63,-0.49c4.62,-2.06 9.38,-4.19 14.43,-4.94c1.46,-0.21 4.22,-0.79 5.31,0.69s-0.35,4.38 -0.14,6.15z"/>
  <path id="svg_128" opacity="0.1" d="m504.58955,220.1c0.44,3.84 4.16,6.37 7.71,7.89l-22.47,7.17c1.45,-2.78 0.28,-6.18 -1.16,-9a50.93,50.93 0 0 0 -4,-6.41c-0.22,-0.31 -0.47,-0.7 -0.31,-1.06a1.12,1.12 0 0 1 0.63,-0.49c4.62,-2.06 9.38,-4.19 14.43,-4.94c1.46,-0.21 4.22,-0.79 5.31,0.69s-0.35,4.38 -0.14,6.15z"/>
  <circle id="svg_129" fill="#fbbebe" r="17.62" cy="205.59" cx="491.52956"/>
  <path id="svg_130" fill="#2f2e41" d="m476.25955,350.59c1.71,2.05 4.72,2.45 7.35,2c6.15,-1 11.18,-5.53 17.2,-7.16c7.38,-2 15.19,0.57 22.16,3.72s13.9,7 21.52,7.54c-6.89,-15.36 -2.95,-33.84 -9.54,-49.33c-1.61,-3.79 -3.86,-7.44 -4.22,-11.54c-0.45,-5.09 2.09,-10 2.48,-15.06c0.36,-4.51 -1,-9 -2.3,-13.3q-2.41,-7.92 -4.82,-15.84c-1.8,-5.91 -3.65,-11.92 -7.14,-17c-1.29,-1.87 -1.68,-5.66 -3.64,-6.79c-4.28,-2.47 -10.77,0.64 -15.41,0.81s-8.87,3.47 -11.58,7.2c-2.87,3.94 -4.5,8.63 -6,13.27a126.15,126.15 0 0 0 -5.33,21.23c-0.15,1.08 -0.28,2.16 -0.38,3.25c-1,10.27 0.46,20.6 0.54,30.92l0,0.07c0.1,13.09 -2,26.1 -2.39,39.18c-0.04,2.39 0.02,5 1.5,6.83z"/>
  <path id="svg_131" opacity="0.1" d="m477.17955,304.52c3.45,-0.87 6.57,-3.1 9.25,-5.54a38.67,38.67 0 0 0 6.14,-7a49.86,49.86 0 0 0 5.29,-11.07a129.36,129.36 0 0 0 7,-32.27c0.26,-3 0.34,-6.22 -1.45,-8.6a7.24,7.24 0 0 0 -8.75,-2.12c-2.36,1.15 -3.89,3.48 -5.31,5.71c-2.81,4.42 -5.64,8.9 -7.45,13.82c-0.8,2.18 -1.39,4.42 -2.17,6.61a61,61 0 0 1 -2.74,6.33c-0.15,1.08 -0.28,2.16 -0.38,3.25c-0.93,10.27 0.49,20.56 0.57,30.88z"/>
  <path id="svg_132" fill="#2f2e41" d="m503.35955,238.11c1.79,2.38 1.71,5.63 1.46,8.59a129.18,129.18 0 0 1 -7,32.27a49.43,49.43 0 0 1 -5.29,11.16a39.07,39.07 0 0 1 -6.14,7c-3.4,3.1 -7.54,5.87 -12.15,5.91a23.16,23.16 0 0 1 -7.56,-1.65l-37.55,-12.78c-0.38,-2.14 1.13,-4.64 1.84,-6.7l2,-5.93c0.57,-1.64 1.23,-3.41 2.72,-4.3s3.85,0.33 5.09,1.32s2.18,2.29 3.4,3.3c2.31,1.92 5.36,2.64 8.3,3.3l8.43,1.89a35.2,35.2 0 0 0 9.38,1.25c2.35,-7.18 6.82,-13.5 9.35,-20.62c0.78,-2.18 1.37,-4.43 2.18,-6.61c1.8,-4.92 4.64,-9.39 7.45,-13.82c1.41,-2.22 2.94,-4.55 5.31,-5.71a7.23,7.23 0 0 1 8.78,2.13z"/>
  <path id="svg_133" fill="#2f2e41" d="m497.14955,209.57a8.89,8.89 0 0 0 -1.06,-3.3a2.77,2.77 0 0 0 -3,-1.32c-1.76,0.55 -2.35,3.27 -4.19,3.36c-1.24,0.06 -2.13,-1.2 -2.52,-2.38s-0.6,-2.53 -1.53,-3.36a5.7,5.7 0 0 0 -2.18,-1c-4.27,-1.35 -8.68,-3.84 -10.1,-8.09a4.84,4.84 0 0 1 -0.23,-2.71c0.65,-2.69 4,-3.5 6.55,-4.47s5,-2.63 7.5,-3.89s5.4,-2.15 8.15,-1.51a42.47,42.47 0 0 1 4.11,1.53c4.14,1.44 9.21,0.77 12.42,3.76a12.83,12.83 0 0 1 3,5.24c2.24,6.22 3.66,13.6 -0.05,19.06c-2.29,3.37 -4.51,7.22 -8.91,7.63c-5.12,0.43 -7.15,-4.21 -7.96,-8.55z"/>
  <g id="svg_134" opacity="0.1">
   <path id="svg_22" d="m489.32955,203.81c-0.39,-1.18 -0.6,-2.53 -1.52,-3.36a5.7,5.7 0 0 0 -2.18,-1c-4.28,-1.35 -8.68,-3.84 -10.11,-8.09a4.93,4.93 0 0 1 -0.22,-2.71a3.39,3.39 0 0 1 0.53,-1.19c-1.63,0.71 -3.05,1.65 -3.45,3.31a4.84,4.84 0 0 0 0.23,2.71c1.42,4.25 5.83,6.74 10.1,8.09a5.7,5.7 0 0 1 2.18,1c0.93,0.83 1.13,2.17 1.53,3.36s1.28,2.44 2.52,2.38s1.84,-1.19 2.63,-2.14c-1.09,-0.14 -1.88,-1.26 -2.24,-2.36z"/>
   <path id="svg_23" d="m508.04955,215.97c-5.14,0.47 -7.17,-4.21 -8,-8.52a8.7,8.7 0 0 0 -1,-3.3a2.78,2.78 0 0 0 -3,-1.32a5.32,5.32 0 0 0 -2.21,2a3,3 0 0 1 2.26,1.4a8.89,8.89 0 0 1 1.06,3.3c0.81,4.31 2.84,9 8,8.52a8.25,8.25 0 0 0 5.28,-2.74a7.46,7.46 0 0 1 -2.39,0.66z"/>
  </g>
 </g>
</svg>